<svg width="54" height="54" viewBox="0 0 54 54" fill="none" xmlns="http://www.w3.org/2000/svg">
<path d="M44.774 33.6247C46.3248 35.1495 47.2779 37.1796 47.4604 39.3468V39.34C49.3251 39.5646 51.0333 40.4939 52.2348 41.9374C53.4364 43.381 54.0403 45.2294 53.9228 47.104C53.8053 48.9785 52.9752 50.737 51.6027 52.0192C50.2303 53.3013 48.4194 54.01 46.5412 53.9999H27C12.0881 53.9999 0 41.9118 0 26.9999C0 12.0881 12.0892 0 27 0C41.9107 0 54 12.0881 54 26.9999C54.0053 30.9575 53.1369 34.8628 51.4623 38.4387C50.8327 38.0997 49.9228 37.7855 49.1999 37.65C48.9749 35.55 47.3788 33.027 45.4499 31.5C43.822 30.2112 41.9487 29.6177 40.9397 29.3311C41.3316 26.9353 41.1013 24.4737 40.2638 22.1846C39.3255 19.6202 37.6653 17.3819 35.4833 15.74C33.3014 14.0981 30.6909 13.1226 27.9669 12.9311C25.2429 12.7397 22.5217 13.3406 20.1315 14.6613C17.7414 15.982 15.7845 17.966 14.4968 20.3741C13.2091 22.7821 12.6457 25.5114 12.8746 28.2325C13.1034 30.9536 14.1148 33.5504 15.7866 35.7095C17.4584 37.8687 19.7192 39.498 22.2964 40.4009C22.8476 39.5722 23.5956 38.8932 24.4736 38.4246C25.3516 37.9559 26.3321 37.7123 27.3274 37.7155C28.0781 37.7195 28.8214 37.8641 29.5189 38.1419C29.9895 36.0186 31.2054 34.1342 32.9462 32.8304C34.6869 31.5267 36.8373 30.89 39.0073 31.0357C41.1773 31.1814 43.2232 32.1 44.774 33.6247Z" fill="#CE8D48"/>
</svg>
