<svg width="244" height="48" viewBox="0 0 244 48" fill="none" xmlns="http://www.w3.org/2000/svg">
<path d="M39.7991 29.8887C41.1776 31.244 42.0248 33.0485 42.187 34.9749V34.9689C43.8445 35.1685 45.3629 35.9946 46.431 37.2777C47.499 38.5609 48.0358 40.204 47.9314 41.8702C47.8269 43.5364 47.0891 45.0996 45.8691 46.2393C44.6491 47.379 43.0395 48.0089 41.37 47.9999H24C10.745 47.9999 0 37.2549 0 24C0 10.745 10.746 0 24 0C37.254 0 48 10.745 48 24C48.0047 27.5178 47.2328 30.9891 45.7442 34.1677C45.1846 33.8664 44.3758 33.5871 43.7333 33.4667C43.5333 31.6 42.1145 29.3574 40.3999 28C38.9529 26.8544 37.2878 26.3269 36.3908 26.0721C36.7392 23.9425 36.5345 21.7544 35.79 19.7197C34.956 17.4401 33.4803 15.4506 31.5407 13.9911C29.6012 12.5316 27.2808 11.6645 24.8595 11.4944C22.4381 11.3242 20.0193 11.8583 17.8947 13.0322C15.7701 14.2062 14.0306 15.9698 12.886 18.1103C11.7414 20.2508 11.2406 22.6768 11.4441 25.0955C11.6475 27.5143 12.5465 29.8226 14.0325 31.7418C15.5186 33.6611 17.5282 35.1094 19.819 35.9119C20.3089 35.1753 20.9739 34.5717 21.7543 34.1552C22.5348 33.7386 23.4063 33.5221 24.291 33.5249C24.9583 33.5285 25.619 33.657 26.239 33.9039C26.6573 32.0165 27.7381 30.3415 29.2855 29.1826C30.8328 28.0237 32.7443 27.4577 34.6731 27.5873C36.602 27.7168 38.4206 28.5333 39.7991 29.8887Z" fill="var(-------------A1D, white)"/>
<path d="M39.7991 29.8887C41.1776 31.244 42.0248 33.0485 42.187 34.9749V34.9689C43.8445 35.1685 45.3629 35.9946 46.431 37.2777C47.499 38.5609 48.0358 40.204 47.9314 41.8702C47.8269 43.5364 47.0891 45.0996 45.8691 46.2393C44.6491 47.379 43.0395 48.0089 41.37 47.9999H24C10.745 47.9999 0 37.2549 0 24C0 10.745 10.746 0 24 0C37.254 0 48 10.745 48 24C48.0047 27.5178 47.2328 30.9891 45.7442 34.1677C45.1846 33.8664 44.3758 33.5871 43.7333 33.4667C43.5333 31.6 42.1145 29.3574 40.3999 28C38.9529 26.8544 37.2878 26.3269 36.3908 26.0721C36.7392 23.9425 36.5345 21.7544 35.79 19.7197C34.956 17.4401 33.4803 15.4506 31.5407 13.9911C29.6012 12.5316 27.2808 11.6645 24.8595 11.4944C22.4381 11.3242 20.0193 11.8583 17.8947 13.0322C15.7701 14.2062 14.0306 15.9698 12.886 18.1103C11.7414 20.2508 11.2406 22.6768 11.4441 25.0955C11.6475 27.5143 12.5465 29.8226 14.0325 31.7418C15.5186 33.6611 17.5282 35.1094 19.819 35.9119C20.3089 35.1753 20.9739 34.5717 21.7543 34.1552C22.5348 33.7386 23.4063 33.5221 24.291 33.5249C24.9583 33.5285 25.619 33.657 26.239 33.9039C26.6573 32.0165 27.7381 30.3415 29.2855 29.1826C30.8328 28.0237 32.7443 27.4577 34.6731 27.5873C36.602 27.7168 38.4206 28.5333 39.7991 29.8887Z" fill="var(-------------A1D, white)"/>
<path d="M76.344 41.0541C66.7018 41.0541 60.8887 32.9571 60.8887 24.027C60.8887 15.0969 66.7018 7 76.344 7C85.9862 7 91.7993 15.0969 91.7993 24.027C91.7993 35.3125 83.3472 41.0541 76.344 41.0541ZM76.344 11.8874C70.6247 11.8874 66.2049 17.4307 66.2049 24.027C66.2049 30.6234 70.974 36.2613 76.344 36.2613C81.7141 36.2613 86.2939 30.7638 86.2939 24.2248C86.2939 17.5721 82.0634 11.8874 76.344 11.8874Z" fill="var(-------------A1D, white)"/>
<path d="M76.344 41.0541C66.7018 41.0541 60.8887 32.9571 60.8887 24.027C60.8887 15.0969 66.7018 7 76.344 7C85.9862 7 91.7993 15.0969 91.7993 24.027C91.7993 35.3125 83.3472 41.0541 76.344 41.0541ZM76.344 11.8874C70.6247 11.8874 66.2049 17.4307 66.2049 24.027C66.2049 30.6234 70.974 36.2613 76.344 36.2613C81.7141 36.2613 86.2939 30.7638 86.2939 24.2248C86.2939 17.5721 82.0634 11.8874 76.344 11.8874Z" fill="var(-------------A1D, white)"/>
<path d="M76.917 36.8648H93.7549V41.027H76.917V36.8648Z" fill="var(-------------A1D, white)"/>
<path d="M76.917 36.8648H93.7549V41.027H76.917V36.8648Z" fill="var(-------------A1D, white)"/>
<path d="M111.539 41.0541C101.897 41.0541 96.0842 32.9571 96.0842 24.027C96.0842 15.0969 101.897 7 111.539 7C121.182 7 126.995 15.0969 126.995 24.027C126.995 35.3125 118.543 41.0541 111.539 41.0541ZM111.539 11.8874C105.82 11.8874 101.4 17.4307 101.4 24.027C101.4 30.6234 106.169 36.2613 111.539 36.2613C116.91 36.2613 121.489 30.7638 121.489 24.2248C121.489 17.5721 117.259 11.8874 111.539 11.8874Z" fill="var(-------------A1D, white)"/>
<path d="M111.539 41.0541C101.897 41.0541 96.0842 32.9571 96.0842 24.027C96.0842 15.0969 101.897 7 111.539 7C121.182 7 126.995 15.0969 126.995 24.027C126.995 35.3125 118.543 41.0541 111.539 41.0541ZM111.539 11.8874C105.82 11.8874 101.4 17.4307 101.4 24.027C101.4 30.6234 106.169 36.2613 111.539 36.2613C116.91 36.2613 121.489 30.7638 121.489 24.2248C121.489 17.5721 117.259 11.8874 111.539 11.8874Z" fill="var(-------------A1D, white)"/>
<path d="M112.071 36.8918H128.909V41.054H112.071V36.8918Z" fill="var(-------------A1D, white)"/>
<path d="M112.071 36.8918H128.909V41.054H112.071V36.8918Z" fill="var(-------------A1D, white)"/>
<path fill-rule="evenodd" clip-rule="evenodd" d="M210.423 28.2925L209.601 28.7509H217.455C217.731 28.5827 218.009 28.4156 218.286 28.2486C219.75 27.3667 221.221 26.4808 222.682 25.309H230.195C231.141 26.0033 232.075 26.6371 232.998 27.2105C233.48 27.5101 233.97 27.7456 234.458 27.9757C234.494 27.9924 234.529 28.0091 234.564 28.0257C235.019 28.24 235.472 28.4535 235.933 28.7184L235.99 28.7509L243.7 28.7184C242.3 27.9603 240.795 27.4115 239.406 26.6369C238.6 26.1872 237.829 25.7446 237.093 25.309H243.03V21.5509H238.263C237.902 20.8003 237.535 20.0225 237.106 19.3085H232.334L233.322 21.5509H226.973C227.745 20.8108 228.514 20.0806 229.221 19.2788H223.525C222.941 19.8257 222.319 20.3268 221.695 20.8259C221.407 21.0561 221.108 21.2951 220.796 21.5509H209.993V25.309H215.714C215.023 25.7715 214.295 26.2413 213.531 26.7186C212.54 27.328 211.438 27.7263 210.423 28.2925Z" fill="var(-------------A1D, white)"/>
<path fill-rule="evenodd" clip-rule="evenodd" d="M210.423 28.2925L209.601 28.7509H217.455C217.731 28.5827 218.009 28.4156 218.286 28.2486C219.75 27.3667 221.221 26.4808 222.682 25.309H230.195C231.141 26.0033 232.075 26.6371 232.998 27.2105C233.48 27.5101 233.97 27.7456 234.458 27.9757C234.494 27.9924 234.529 28.0091 234.564 28.0257C235.019 28.24 235.472 28.4535 235.933 28.7184L235.99 28.7509L243.7 28.7184C242.3 27.9603 240.795 27.4115 239.406 26.6369C238.6 26.1872 237.829 25.7446 237.093 25.309H243.03V21.5509H238.263C237.902 20.8003 237.535 20.0225 237.106 19.3085H232.334L233.322 21.5509H226.973C227.745 20.8108 228.514 20.0806 229.221 19.2788H223.525C222.941 19.8257 222.319 20.3268 221.695 20.8259C221.407 21.0561 221.108 21.2951 220.796 21.5509H209.993V25.309H215.714C215.023 25.7715 214.295 26.2413 213.531 26.7186C212.54 27.328 211.438 27.7263 210.423 28.2925Z" fill="var(-------------A1D, white)"/>
<path fill-rule="evenodd" clip-rule="evenodd" d="M227.331 29.3043V41.462H242.345V31.0176C242.345 30.0714 241.578 29.3043 240.631 29.3043H227.331ZM238.32 32.8724V37.8939H231.357V32.8724H238.32Z" fill="var(-------------A1D, white)"/>
<path fill-rule="evenodd" clip-rule="evenodd" d="M227.331 29.3043V41.462H242.345V31.0176C242.345 30.0714 241.578 29.3043 240.631 29.3043H227.331ZM238.32 32.8724V37.8939H231.357V32.8724H238.32Z" fill="var(-------------A1D, white)"/>
<path fill-rule="evenodd" clip-rule="evenodd" d="M210.602 41.462H225.54V31.0176C225.54 30.0714 224.772 29.3043 223.826 29.3043H210.602V41.462ZM221.514 32.8724V37.8939H214.665V32.8724H221.514Z" fill="var(-------------A1D, white)"/>
<path fill-rule="evenodd" clip-rule="evenodd" d="M210.602 41.462H225.54V31.0176C225.54 30.0714 224.772 29.3043 223.826 29.3043H210.602V41.462ZM221.514 32.8724V37.8939H214.665V32.8724H221.514Z" fill="var(-------------A1D, white)"/>
<path fill-rule="evenodd" clip-rule="evenodd" d="M227.331 18.9618H242.345V9.0875C242.345 8.14128 241.578 7.37422 240.631 7.37422H227.331V18.9618ZM238.32 10.9803V15.3557H231.395V10.9803H238.32Z" fill="var(-------------A1D, white)"/>
<path fill-rule="evenodd" clip-rule="evenodd" d="M227.331 18.9618H242.345V9.0875C242.345 8.14128 241.578 7.37422 240.631 7.37422H227.331V18.9618ZM238.32 10.9803V15.3557H231.395V10.9803H238.32Z" fill="var(-------------A1D, white)"/>
<path fill-rule="evenodd" clip-rule="evenodd" d="M210.602 18.9618H225.578V9.0875C225.578 8.14128 224.81 7.37422 223.864 7.37422H210.602V18.9618ZM221.514 10.9803V15.3557H214.665V10.9803H221.514Z" fill="var(-------------A1D, white)"/>
<path fill-rule="evenodd" clip-rule="evenodd" d="M210.602 18.9618H225.578V9.0875C225.578 8.14128 224.81 7.37422 223.864 7.37422H210.602V18.9618ZM221.514 10.9803V15.3557H214.665V10.9803H221.514Z" fill="var(-------------A1D, white)"/>
<path fill-rule="evenodd" clip-rule="evenodd" d="M171.951 41.5001L172.765 41.042C174.382 40.133 175.935 39.1738 177.425 38.1642L177.426 38.1631C178.936 37.157 180.267 36.0896 181.421 34.9612L181.423 34.9594C182.599 33.8339 183.56 32.623 184.308 31.3272C185.051 30.0398 185.497 28.6542 185.645 27.1683L185.667 26.9479H190.456L190.429 27.217C190.378 27.7282 190.314 28.2269 190.237 28.7131C190.177 29.0951 190.093 29.4696 189.986 29.8365H193.358V37.5519H205.981V41.5001H188.648V33.1579C187.835 34.6566 186.809 36.0564 185.572 37.3572L185.571 37.3587C184.09 38.8899 182.494 40.2557 180.782 41.4557L180.719 41.5001H171.951ZM179.252 34.5828H174.58V22.311H201.415C202.362 22.311 203.129 23.0781 203.129 24.0243V34.5828H198.419V26.1832H179.252V34.5828ZM186.612 21.5843L186.816 21.2203C187.416 20.1453 187.93 18.9685 188.356 17.6895L188.357 17.6882L188.357 17.6868C188.81 16.3785 189.175 15.0708 189.451 13.7635L189.452 13.7613L189.452 13.7591C189.755 12.4503 189.968 11.1933 190.094 9.98809L190.094 9.98589L190.094 9.9837C190.246 8.74718 190.334 7.67833 190.359 6.77604L190.365 6.53809H194.879V6.78284C194.879 7.14085 194.866 7.51099 194.841 7.89321C194.84 8.18898 194.833 8.48475 194.818 8.78051H205.981V12.6907H194.346C194.069 14.2997 193.698 15.8508 193.233 17.3438C192.774 18.8995 192.25 20.2684 191.659 21.449L191.591 21.5843H186.612ZM181.005 6.53809H185.601V21.5843H181.005V6.53809ZM173.211 7.29823H177.807V20.9382H173.211V7.29823ZM200.111 21.5843L200.043 21.4506C199.337 20.0639 198.58 18.7406 197.774 17.4808L197.773 17.4793L197.772 17.4778C196.988 16.2148 196.116 14.8879 195.155 13.4972L194.889 13.1133H199.7L199.773 13.2118C200.739 14.5077 201.642 15.8039 202.481 17.1003C203.346 18.3977 204.185 19.7709 204.999 21.2198L205.204 21.5843H200.111Z" fill="var(-------------A1D, white)"/>
<path fill-rule="evenodd" clip-rule="evenodd" d="M171.951 41.5001L172.765 41.042C174.382 40.133 175.935 39.1738 177.425 38.1642L177.426 38.1631C178.936 37.157 180.267 36.0896 181.421 34.9612L181.423 34.9594C182.599 33.8339 183.56 32.623 184.308 31.3272C185.051 30.0398 185.497 28.6542 185.645 27.1683L185.667 26.9479H190.456L190.429 27.217C190.378 27.7282 190.314 28.2269 190.237 28.7131C190.177 29.0951 190.093 29.4696 189.986 29.8365H193.358V37.5519H205.981V41.5001H188.648V33.1579C187.835 34.6566 186.809 36.0564 185.572 37.3572L185.571 37.3587C184.09 38.8899 182.494 40.2557 180.782 41.4557L180.719 41.5001H171.951ZM179.252 34.5828H174.58V22.311H201.415C202.362 22.311 203.129 23.0781 203.129 24.0243V34.5828H198.419V26.1832H179.252V34.5828ZM186.612 21.5843L186.816 21.2203C187.416 20.1453 187.93 18.9685 188.356 17.6895L188.357 17.6882L188.357 17.6868C188.81 16.3785 189.175 15.0708 189.451 13.7635L189.452 13.7613L189.452 13.7591C189.755 12.4503 189.968 11.1933 190.094 9.98809L190.094 9.98589L190.094 9.9837C190.246 8.74718 190.334 7.67833 190.359 6.77604L190.365 6.53809H194.879V6.78284C194.879 7.14085 194.866 7.51099 194.841 7.89321C194.84 8.18898 194.833 8.48475 194.818 8.78051H205.981V12.6907H194.346C194.069 14.2997 193.698 15.8508 193.233 17.3438C192.774 18.8995 192.25 20.2684 191.659 21.449L191.591 21.5843H186.612ZM181.005 6.53809H185.601V21.5843H181.005V6.53809ZM173.211 7.29823H177.807V20.9382H173.211V7.29823ZM200.111 21.5843L200.043 21.4506C199.337 20.0639 198.58 18.7406 197.774 17.4808L197.773 17.4793L197.772 17.4778C196.988 16.2148 196.116 14.8879 195.155 13.4972L194.889 13.1133H199.7L199.773 13.2118C200.739 14.5077 201.642 15.8039 202.481 17.1003C203.346 18.3977 204.185 19.7709 204.999 21.2198L205.204 21.5843H200.111Z" fill="var(-------------A1D, white)"/>
<path fill-rule="evenodd" clip-rule="evenodd" d="M152.734 41.3074L152.795 41.462H157.592L151.666 27.7162C152.416 25.6072 153.079 23.4001 153.656 21.0948C154.226 18.8149 154.699 16.3554 155.075 13.7168H156.629V9.76861H151.03C150.917 9.25201 150.804 8.7454 150.691 8.24881C150.563 7.68433 150.421 7.18085 150.265 6.73931L150.207 6.57601H145.848L145.963 6.90223C146.111 7.32218 146.248 7.80689 146.373 8.35729L146.374 8.3624L146.376 8.36745C146.501 8.82574 146.617 9.29279 146.725 9.76861H141.196V13.7168H151.006C150.586 16.5657 149.983 19.3122 149.197 21.9562L146.013 14.5195H141.72L141.862 14.8586C142.825 17.1646 143.75 19.3693 144.637 21.4726L144.638 21.4742L144.639 21.4759C145.537 23.5198 146.385 25.5391 147.184 27.5336C146.234 29.8481 145.136 32.1012 143.89 34.293L143.889 34.2949C142.65 36.5189 141.272 38.7814 139.754 41.0825L139.504 41.462H144.615L144.687 41.3521C145.628 39.9289 146.505 38.4927 147.319 37.0436C148.067 35.7528 148.774 34.4219 149.44 33.0508C149.956 34.3663 150.471 35.662 150.986 36.938C151.568 38.3818 152.151 39.8383 152.734 41.3074Z" fill="var(-------------A1D, white)"/>
<path fill-rule="evenodd" clip-rule="evenodd" d="M152.734 41.3074L152.795 41.462H157.592L151.666 27.7162C152.416 25.6072 153.079 23.4001 153.656 21.0948C154.226 18.8149 154.699 16.3554 155.075 13.7168H156.629V9.76861H151.03C150.917 9.25201 150.804 8.7454 150.691 8.24881C150.563 7.68433 150.421 7.18085 150.265 6.73931L150.207 6.57601H145.848L145.963 6.90223C146.111 7.32218 146.248 7.80689 146.373 8.35729L146.374 8.3624L146.376 8.36745C146.501 8.82574 146.617 9.29279 146.725 9.76861H141.196V13.7168H151.006C150.586 16.5657 149.983 19.3122 149.197 21.9562L146.013 14.5195H141.72L141.862 14.8586C142.825 17.1646 143.75 19.3693 144.637 21.4726L144.638 21.4742L144.639 21.4759C145.537 23.5198 146.385 25.5391 147.184 27.5336C146.234 29.8481 145.136 32.1012 143.89 34.293L143.889 34.2949C142.65 36.5189 141.272 38.7814 139.754 41.0825L139.504 41.462H144.615L144.687 41.3521C145.628 39.9289 146.505 38.4927 147.319 37.0436C148.067 35.7528 148.774 34.4219 149.44 33.0508C149.956 34.3663 150.471 35.662 150.986 36.938C151.568 38.3818 152.151 39.8383 152.734 41.3074Z" fill="var(-------------A1D, white)"/>
<path d="M160.939 41.072L160.652 41.462H166.164L166.228 41.3144C166.642 40.3568 167.026 39.0732 167.383 37.4696C167.743 35.8514 167.921 33.9578 167.921 31.7915V6.5H163.819V31.7899C163.794 33.8185 163.481 35.6262 162.884 37.2165C162.281 38.851 161.631 40.1341 160.939 41.072Z" fill="var(-------------A1D, white)"/>
<path d="M160.939 41.072L160.652 41.462H166.164L166.228 41.3144C166.642 40.3568 167.026 39.0732 167.383 37.4696C167.743 35.8514 167.921 33.9578 167.921 31.7915V6.5H163.819V31.7899C163.794 33.8185 163.481 35.6262 162.884 37.2165C162.281 38.851 161.631 40.1341 160.939 41.072Z" fill="var(-------------A1D, white)"/>
<path fill-rule="evenodd" clip-rule="evenodd" d="M161.533 8.74242H157.508V34.5447H161.533V8.74242Z" fill="var(-------------A1D, white)"/>
<path fill-rule="evenodd" clip-rule="evenodd" d="M161.533 8.74242H157.508V34.5447H161.533V8.74242Z" fill="var(-------------A1D, white)"/>
<path fill-rule="evenodd" clip-rule="evenodd" d="M133.487 41.1512L133.4 41.462H138.058L138.104 41.2772C138.663 39.0675 139.197 36.6431 139.704 34.0041C140.212 31.3386 140.644 28.6221 141 25.8555L141.035 25.5796H136.666L136.636 25.79C136.256 28.4714 135.814 31.0766 135.308 33.6055C134.802 36.1079 134.195 38.6231 133.487 41.1512Z" fill="var(-------------A1D, white)"/>
<path fill-rule="evenodd" clip-rule="evenodd" d="M133.487 41.1512L133.4 41.462H138.058L138.104 41.2772C138.663 39.0675 139.197 36.6431 139.704 34.0041C140.212 31.3386 140.644 28.6221 141 25.8555L141.035 25.5796H136.666L136.636 25.79C136.256 28.4714 135.814 31.0766 135.308 33.6055C134.802 36.1079 134.195 38.6231 133.487 41.1512Z" fill="var(-------------A1D, white)"/>
<path fill-rule="evenodd" clip-rule="evenodd" d="M136.723 15.1101L136.78 15.2751H141.335L141.215 14.9464C140.631 13.3482 140.085 11.9266 139.577 10.6818C139.068 9.40998 138.533 8.20113 137.973 7.05533L137.906 6.91808H133.541L133.688 7.25925C133.991 7.96712 134.269 8.63673 134.522 9.26811L134.523 9.27197L134.525 9.27578C134.802 9.90423 135.053 10.5325 135.279 11.1605L135.281 11.1661L135.284 11.1717C135.535 11.7749 135.774 12.4037 136.001 13.058L136.001 13.0594L136.002 13.0608C136.229 13.6931 136.47 14.3762 136.723 15.1101Z" fill="var(-------------A1D, white)"/>
<path fill-rule="evenodd" clip-rule="evenodd" d="M136.723 15.1101L136.78 15.2751H141.335L141.215 14.9464C140.631 13.3482 140.085 11.9266 139.577 10.6818C139.068 9.40998 138.533 8.20113 137.973 7.05533L137.906 6.91808H133.541L133.688 7.25925C133.991 7.96712 134.269 8.63673 134.522 9.26811L134.523 9.27197L134.525 9.27578C134.802 9.90423 135.053 10.5325 135.279 11.1605L135.281 11.1661L135.284 11.1717C135.535 11.7749 135.774 12.4037 136.001 13.058L136.001 13.0594L136.002 13.0608C136.229 13.6931 136.47 14.3762 136.723 15.1101Z" fill="var(-------------A1D, white)"/>
<path fill-rule="evenodd" clip-rule="evenodd" d="M136.684 24.1914L136.74 24.3588H141.298L141.177 24.0292C140.567 22.3798 140.008 20.9569 139.499 19.7614C138.991 18.5678 138.458 17.3743 137.899 16.1808L137.833 16.0398H133.457L133.614 16.3855C134.22 17.7242 134.763 19.0244 135.243 20.2862L135.244 20.289L135.245 20.2918C135.75 21.528 136.23 22.8279 136.684 24.1914Z" fill="var(-------------A1D, white)"/>
<path fill-rule="evenodd" clip-rule="evenodd" d="M136.684 24.1914L136.74 24.3588H141.298L141.177 24.0292C140.567 22.3798 140.008 20.9569 139.499 19.7614C138.991 18.5678 138.458 17.3743 137.899 16.1808L137.833 16.0398H133.457L133.614 16.3855C134.22 17.7242 134.763 19.0244 135.243 20.2862L135.244 20.289L135.245 20.2918C135.75 21.528 136.23 22.8279 136.684 24.1914Z" fill="var(-------------A1D, white)"/>
</svg>
