<svg width="22" height="22" viewBox="0 0 22 22" fill="none" xmlns="http://www.w3.org/2000/svg">
<path d="M10.4981 0.433181C10.5823 -0.144284 11.4156 -0.144281 11.4998 0.433183L11.5363 0.683471C12.2747 5.74659 16.2514 9.72326 21.3145 10.4617L21.5648 10.4982C22.1423 10.5824 22.1423 11.4156 21.5648 11.4999L21.3145 11.5364C16.2514 12.2748 12.2747 16.2515 11.5363 21.3146L11.4998 21.5649C11.4156 22.1423 10.5823 22.1423 10.4981 21.5649L10.4616 21.3146C9.72319 16.2515 5.74651 12.2748 0.683393 11.5364L0.433104 11.4999C-0.14436 11.4156 -0.144358 10.5824 0.433106 10.4982L0.683397 10.4617C5.74651 9.72326 9.72319 5.74659 10.4616 0.683471L10.4981 0.433181Z" fill="url(#paint0_radial_208_697)"/>
<defs>
<radialGradient id="paint0_radial_208_697" cx="0" cy="0" r="1" gradientUnits="userSpaceOnUse" gradientTransform="translate(5.49895 4.99902) rotate(45) scale(21.2132)">
<stop offset="0.130605" stop-color="#7EF2FF"/>
<stop offset="0.54858" stop-color="#54BEFF"/>
<stop offset="1" stop-color="#28ADFF"/>
</radialGradient>
</defs>
</svg>
