<svg width="22" height="22" viewBox="0 0 22 22" fill="none" xmlns="http://www.w3.org/2000/svg">
<g opacity="0.4">
<path fill-rule="evenodd" clip-rule="evenodd" d="M14.187 10.6731C17.6373 11.8966 19.1474 14.9466 19.1474 16.7688C19.1474 18.1684 18.1016 19.0736 16.7015 19.5998C15.2921 20.1295 13.3124 20.3736 10.932 20.3736C8.55158 20.3736 6.57191 20.1295 5.16243 19.5998C3.76229 19.0736 2.71646 18.1683 2.71646 16.7686C2.71646 14.9535 4.21452 11.9215 7.63435 10.6883C9.33926 10.0735 12.4788 10.0674 14.187 10.6731Z" fill="#242424"/>
<path d="M15.183 1.35812C16.1848 1.35823 16.9955 2.17166 16.9955 3.17258C16.9954 3.81073 16.6653 4.3714 16.1693 4.69406C16.5174 5.43866 16.7123 6.26946 16.7123 7.14426C16.7123 8.66934 16.1211 10.0557 15.1576 11.0896C17.9219 12.4912 19.1479 15.128 19.1479 16.7693C19.1477 18.1685 18.1014 19.0732 16.7016 19.5993C15.2921 20.129 13.3124 20.3737 10.932 20.3737C8.55162 20.3737 6.57199 20.129 5.16251 19.5993C3.76241 19.0731 2.71622 18.1679 2.71622 16.7683C2.71639 15.1267 3.94178 12.4899 6.70547 11.0886C5.74297 10.0549 5.15372 8.66851 5.15372 7.14426C5.15379 4.16566 7.40144 1.71234 10.2934 1.39328C10.4088 1.37026 10.5286 1.35812 10.6498 1.35812L15.183 1.35812Z" fill="url(#paint0_linear_208_453)"/>
<mask id="mask0_208_453" style="mask-type:alpha" maskUnits="userSpaceOnUse" x="2" y="1" width="18" height="20">
<path d="M15.183 1.35812C16.1848 1.35823 16.9955 2.17166 16.9955 3.17258C16.9954 3.81073 16.6653 4.3714 16.1693 4.69406C16.5174 5.43866 16.7123 6.26946 16.7123 7.14426C16.7123 8.66934 16.1211 10.0557 15.1576 11.0896C17.9219 12.4912 19.1479 15.128 19.1479 16.7693C19.1477 18.1685 18.1014 19.0732 16.7016 19.5993C15.2921 20.129 13.3124 20.3737 10.932 20.3737C8.55162 20.3737 6.57199 20.129 5.16251 19.5993C3.76241 19.0731 2.71622 18.1679 2.71622 16.7683C2.71639 15.1267 3.94178 12.4899 6.70547 11.0886C5.74297 10.0549 5.15372 8.66851 5.15372 7.14426C5.15379 4.16566 7.40144 1.71234 10.2934 1.39328C10.4088 1.37026 10.5286 1.35812 10.6498 1.35812L15.183 1.35812Z" fill="url(#paint1_linear_208_453)"/>
</mask>
<g mask="url(#mask0_208_453)">
<path d="M16.2199 4.66006C16.2033 4.67167 16.1865 4.683 16.1695 4.69405C16.5176 5.43869 16.712 6.26953 16.712 7.14438C16.712 10.3391 14.1254 12.9305 10.9327 12.9305C9.26555 12.9305 7.76364 12.2239 6.70901 11.0937C6.5655 11.711 6.48962 12.3542 6.48962 13.0151C6.48962 17.6826 10.2734 21.4663 14.9408 21.4663C19.6083 21.4663 23.3921 17.6826 23.3921 13.0151C23.3921 8.78244 20.2804 5.27651 16.2199 4.66006Z" fill="url(#paint2_radial_208_453)"/>
</g>
</g>
<defs>
<linearGradient id="paint0_linear_208_453" x1="-1.45625" y1="3.87726" x2="8.21678" y2="23.7528" gradientUnits="userSpaceOnUse">
<stop stop-color="#C2C2C2"/>
<stop offset="0.50151" stop-color="#A8A8A8"/>
<stop offset="1" stop-color="#7D7D7D"/>
</linearGradient>
<linearGradient id="paint1_linear_208_453" x1="-1.45625" y1="3.87726" x2="8.21678" y2="23.7528" gradientUnits="userSpaceOnUse">
<stop stop-color="#00C5FF"/>
<stop offset="0.50151" stop-color="#169BFF"/>
<stop offset="1" stop-color="#005BFF"/>
</linearGradient>
<radialGradient id="paint2_radial_208_453" cx="0" cy="0" r="1" gradientTransform="matrix(-4.24148 5.22727 -5.25718 -4.21735 14.1264 11.9796)" gradientUnits="userSpaceOnUse">
<stop stop-color="#7E7E7E"/>
<stop offset="0.484529" stop-color="#9E9E9E" stop-opacity="0.261992"/>
<stop offset="1" stop-color="#BEBEBE" stop-opacity="0.01"/>
</radialGradient>
</defs>
</svg>
