<svg width="22" height="22" viewBox="0 0 22 22" fill="none" xmlns="http://www.w3.org/2000/svg">
<path d="M10.4981 0.43312C10.5823 -0.144345 11.4156 -0.144342 11.4998 0.433122L11.5363 0.68341C12.2747 5.74653 16.2514 9.7232 21.3145 10.4616L21.5648 10.4981C22.1423 10.5823 22.1423 11.4156 21.5648 11.4998L21.3145 11.5363C16.2514 12.2747 12.2747 16.2514 11.5363 21.3145L11.4998 21.5648C11.4156 22.1423 10.5823 22.1423 10.4981 21.5648L10.4616 21.3145C9.72319 16.2514 5.74651 12.2747 0.683393 11.5363L0.433104 11.4998C-0.14436 11.4156 -0.144358 10.5823 0.433106 10.4981L0.683397 10.4616C5.74651 9.7232 9.72319 5.74653 10.4616 0.68341L10.4981 0.43312Z" fill="url(#paint0_radial_208_465)"/>
<defs>
<radialGradient id="paint0_radial_208_465" cx="0" cy="0" r="1" gradientUnits="userSpaceOnUse" gradientTransform="translate(5.49895 4.99896) rotate(45) scale(21.2132)">
<stop offset="0.130605" stop-color="#7EF2FF"/>
<stop offset="0.54858" stop-color="#54BEFF"/>
<stop offset="1" stop-color="#28ADFF"/>
</radialGradient>
</defs>
</svg>
