<svg width="22" height="22" viewBox="0 0 22 22" fill="none" xmlns="http://www.w3.org/2000/svg">
<path d="M10.4981 0.433059C10.5823 -0.144406 11.4156 -0.144403 11.4998 0.433061L11.5363 0.683349C12.2747 5.74647 16.2514 9.72314 21.3145 10.4616L21.5648 10.4981C22.1422 10.5823 22.1422 11.4155 21.5648 11.4997L21.3145 11.5362C16.2514 12.2747 12.2747 16.2513 11.5363 21.3145L11.4998 21.5647C11.4156 22.1422 10.5823 22.1422 10.4981 21.5647L10.4616 21.3145C9.72317 16.2513 5.7465 12.2747 0.683378 11.5362L0.433089 11.4997C-0.144375 11.4155 -0.144373 10.5823 0.433091 10.4981L0.683382 10.4616C5.7465 9.72314 9.72317 5.74647 10.4616 0.683349L10.4981 0.433059Z" fill="#54BEFF"/>
<path d="M10.4981 0.433059C10.5823 -0.144406 11.4156 -0.144403 11.4998 0.433061L11.5363 0.683349C12.2747 5.74647 16.2514 9.72314 21.3145 10.4616L21.5648 10.4981C22.1422 10.5823 22.1422 11.4155 21.5648 11.4997L21.3145 11.5362C16.2514 12.2747 12.2747 16.2513 11.5363 21.3145L11.4998 21.5647C11.4156 22.1422 10.5823 22.1422 10.4981 21.5647L10.4616 21.3145C9.72317 16.2513 5.7465 12.2747 0.683378 11.5362L0.433089 11.4997C-0.144375 11.4155 -0.144373 10.5823 0.433091 10.4981L0.683382 10.4616C5.7465 9.72314 9.72317 5.74647 10.4616 0.683349L10.4981 0.433059Z" fill="url(#paint0_radial_208_519)"/>
<defs>
<radialGradient id="paint0_radial_208_519" cx="0" cy="0" r="1" gradientUnits="userSpaceOnUse" gradientTransform="translate(5.49893 4.9989) rotate(45) scale(21.2132)">
<stop offset="0.130605" stop-color="#7EF2FF"/>
<stop offset="0.54858" stop-color="#54BEFF"/>
<stop offset="1" stop-color="#28ADFF"/>
</radialGradient>
</defs>
</svg>
