<svg width="24" height="24" viewBox="0 0 24 24" fill="none" xmlns="http://www.w3.org/2000/svg">
<path d="M11 17V11.5H13V17H11Z" fill="white"/>
<path d="M12 10.4215C12.872 10.4215 13.5789 9.71462 13.5789 8.84259C13.5789 7.97056 12.872 7.26364 12 7.26364C11.1279 7.26364 10.421 7.97056 10.421 8.84259C10.421 9.71462 11.1279 10.4215 12 10.4215Z" fill="white"/>
<path fill-rule="evenodd" clip-rule="evenodd" d="M12 21.9937C17.5229 21.9937 22.0001 17.5165 22.0001 11.9937C22.0001 6.47082 17.5229 1.99365 12 1.99365C6.47716 1.99365 2 6.47082 2 11.9937C2 17.5165 6.47716 21.9937 12 21.9937ZM12 19.8884C16.3602 19.8884 19.8948 16.3538 19.8948 11.9937C19.8948 7.63352 16.3602 4.09892 12 4.09892C7.63987 4.09892 4.10527 7.63352 4.10527 11.9937C4.10527 16.3538 7.63987 19.8884 12 19.8884Z" fill="white"/>
</svg>
