<svg width="40" height="40" viewBox="0 0 40 40" fill="none" xmlns="http://www.w3.org/2000/svg">
<circle cx="20" cy="20" r="18" stroke="var(-----------A1, #242424)" stroke-width="4"/>
<path d="M7.97918 34.8482L5.15076 32.0198L11.4671 25.7035C11.8342 26.2513 12.2578 26.7732 12.7418 27.2572C13.2258 27.7412 13.7476 28.1648 14.2955 28.5319L7.97918 34.8482ZM34.8492 32.0198L32.0208 34.8482L25.7052 28.5326C26.253 28.1655 26.7742 27.7412 27.2582 27.2572C27.7422 26.7732 28.1665 26.252 28.5336 25.7042L34.8492 32.0198ZM14.2948 11.4653C13.747 11.8325 13.2258 12.2568 12.7418 12.7408C12.2578 13.2248 11.8335 13.7459 11.4664 14.2938L5.15076 7.97815L7.97918 5.14972L14.2948 11.4653ZM28.5343 14.2931C28.1672 13.7453 27.7422 13.2247 27.2582 12.7408C26.7743 12.2568 26.2536 11.8317 25.7059 11.4647L32.0208 5.14972L34.8492 7.97815L28.5343 14.2931Z" fill="var(-----------A1, #242424)"/>
<path fill-rule="evenodd" clip-rule="evenodd" d="M19.3701 9.16411C19.5767 8.56505 20.4242 8.56512 20.6309 9.16411L22.0889 13.3975C22.1555 13.5906 22.3077 13.7409 22.4971 13.8174C24.9421 14.8055 26.667 17.2019 26.667 20.001C26.6668 23.6827 23.6826 26.6669 20.001 26.667C16.3192 26.667 13.3342 23.6828 13.334 20.001C13.334 17.202 15.059 14.8056 17.5039 13.8174C17.6933 13.7409 17.8465 13.5907 17.9131 13.3975L19.3701 9.16411ZM20 16.0001C17.7909 16.0001 16 17.7909 16 20.0001C16 22.2092 17.7909 24.0001 20 24.0001C22.2091 24.0001 24 22.2092 24 20.0001C24 17.7909 22.2091 16.0001 20 16.0001Z" fill="var(-----------A1, #242424)"/>
<path d="M22.7075 14.1225L20.6325 7.89737C20.4299 7.28957 19.5701 7.28957 19.3675 7.89736L17.2925 14.1225C17.1486 14.5542 17.4699 15 17.925 15H22.075C22.5301 15 22.8514 14.5542 22.7075 14.1225Z" fill="var(-----------A1, #242424)"/>
<circle cx="20" cy="20" r="6" stroke="var(-----------A1, #242424)" stroke-width="4"/>
</svg>
