<svg width="24" height="24" viewBox="0 0 24 24" fill="none" xmlns="http://www.w3.org/2000/svg">
<path d="M15.2705 1.71582C14.8562 1.70248 14.4814 1.79891 14.1318 1.9502C13.7936 2.09664 13.458 2.30338 13.1221 2.52637C12.8056 2.73644 12.3814 3.03492 11.9736 3.30957C11.4512 3.66139 10.9661 4.00479 10.6123 4.25977C10.5174 4.32816 10.432 4.39094 10.3574 4.44531C9.93777 4.34476 9.25338 4.17301 8.54297 3.93945C7.60302 3.63076 6.77286 3.36688 6.06543 3.31543C5.31915 3.26117 4.66074 3.43794 4.08496 3.95996L3.9707 4.06836V4.06934C3.66858 4.37375 3.43219 4.70565 3.29102 5.09277C3.14882 5.48274 3.12504 5.86909 3.16113 6.24805C3.19603 6.61432 3.28973 6.99539 3.39844 7.38184C3.50098 7.74637 3.65417 8.23961 3.79004 8.70996C3.96453 9.31488 4.14609 9.88544 4.28418 10.3037C4.3165 10.4016 4.34803 10.4912 4.375 10.5713C4.19586 10.8223 3.95634 11.1591 3.70312 11.5273L3.28125 12.1504C3.01029 12.5592 2.71512 12.9853 2.50781 13.3027C2.28778 13.6396 2.08383 13.9765 1.94043 14.3154C1.79219 14.6659 1.69831 15.0415 1.7168 15.4561C1.73517 15.868 1.86107 16.2555 2.05859 16.6357C2.45246 17.3946 3.05741 17.7962 3.83496 17.9756C4.52586 18.1349 5.39776 18.1274 6.3877 18.1094C7.16421 18.0954 7.89361 18.1275 8.31934 18.1514C8.37345 18.224 8.43417 18.3081 8.50293 18.3994C8.63344 18.5727 8.78931 18.7762 8.96094 18.998L9.5166 19.7041C9.82352 20.0869 10.1375 20.4956 10.377 20.79C10.6306 21.1018 10.8887 21.3979 11.168 21.6377C11.4569 21.8857 11.7865 22.0888 12.1865 22.1982C12.5839 22.3069 12.9917 22.307 13.415 22.2373V22.2363C14.2586 22.0978 14.8301 21.6519 15.2441 20.9697C15.6118 20.3639 15.8754 19.535 16.166 18.5928C16.3449 18.012 16.5402 17.4636 16.6914 17.0596C16.7324 16.95 16.7717 16.852 16.8047 16.7666C17.2226 16.6262 17.8996 16.395 18.6191 16.125C19.0805 15.952 19.5692 15.7806 19.9248 15.6445C20.3014 15.5004 20.6641 15.3475 20.9795 15.1572C21.3056 14.9604 21.6027 14.7108 21.832 14.3652C22.0028 14.1078 22.1166 13.8259 22.1904 13.5225L22.252 13.2119C22.3127 12.8182 22.2949 12.4326 22.1748 12.0557C22.0562 11.6834 21.8522 11.3654 21.6064 11.083C21.1415 10.5488 20.4315 10.044 19.6211 9.47949C19.1217 9.13189 18.6588 8.77773 18.3193 8.50977C18.218 8.42974 18.1289 8.35653 18.0527 8.29492C18.0249 7.86725 17.983 7.12227 17.9883 6.33691V6.33594C17.9943 5.35112 17.9919 4.48206 17.8232 3.79492C17.734 3.43137 17.5917 3.08105 17.3555 2.76953C17.1166 2.45446 16.8116 2.21787 16.4551 2.04004C16.0714 1.84854 15.6822 1.72909 15.2705 1.71582Z" fill="#92CF77" stroke="#7AAB64" stroke-width="1.71429"/>
</svg>
