<svg width="24" height="24" viewBox="0 0 24 24" fill="none" xmlns="http://www.w3.org/2000/svg">
<path d="M15.2715 1.71606C14.8571 1.70273 14.4824 1.79915 14.1328 1.95044C13.7946 2.09689 13.459 2.30363 13.123 2.52661C12.8066 2.73668 12.3824 3.03517 11.9746 3.30981C11.4522 3.66164 10.9671 4.00504 10.6133 4.26001C10.5184 4.3284 10.433 4.39118 10.3584 4.44556C9.93874 4.34501 9.25435 4.17325 8.54395 3.9397C7.604 3.63101 6.77384 3.36712 6.06641 3.31567C5.32013 3.26142 4.66171 3.43818 4.08594 3.96021L3.97168 4.0686V4.06958C3.66955 4.374 3.43316 4.70589 3.29199 5.09302C3.14979 5.48298 3.12601 5.86933 3.16211 6.24829C3.19701 6.61456 3.29071 6.99563 3.39941 7.38208C3.50196 7.74661 3.65515 8.23986 3.79102 8.71021C3.96551 9.31513 4.14707 9.88569 4.28516 10.304C4.31748 10.4019 4.349 10.4914 4.37598 10.5715C4.19684 10.8225 3.95732 11.1593 3.7041 11.5276L3.28223 12.1506C3.01127 12.5594 2.7161 12.9856 2.50879 13.303C2.28875 13.6399 2.0848 13.9767 1.94141 14.3157C1.79317 14.6661 1.69929 15.0418 1.71777 15.4563C1.73615 15.8683 1.86205 16.2558 2.05957 16.636C2.45344 17.3949 3.05839 17.7965 3.83594 17.9758C4.52683 18.1352 5.39874 18.1276 6.38867 18.1096C7.16518 18.0957 7.89459 18.1278 8.32031 18.1516C8.37442 18.2243 8.43515 18.3084 8.50391 18.3997C8.63442 18.573 8.79028 18.7764 8.96191 18.9983L9.51758 19.7043C9.8245 20.0871 10.1385 20.4959 10.3779 20.7903C10.6315 21.102 10.8897 21.3982 11.1689 21.6379C11.4579 21.8859 11.7875 22.0891 12.1875 22.1985C12.5848 22.3071 12.9926 22.3073 13.416 22.2375V22.2366C14.2596 22.0981 14.8311 21.6522 15.2451 20.97C15.6128 20.3642 15.8764 19.5352 16.167 18.593C16.3459 18.0122 16.5412 17.4638 16.6924 17.0598C16.7334 16.9503 16.7727 16.8523 16.8057 16.7668C17.2236 16.6265 17.9005 16.3952 18.6201 16.1252C19.0815 15.9523 19.5702 15.7809 19.9258 15.6448C20.3024 15.5006 20.6651 15.3477 20.9805 15.1575C21.3066 14.9607 21.6037 14.7111 21.833 14.3655C22.0038 14.108 22.1176 13.8261 22.1914 13.5227L22.2529 13.2122C22.3137 12.8184 22.2959 12.4329 22.1758 12.0559C22.0571 11.6836 21.8532 11.3657 21.6074 11.0833C21.1425 10.549 20.4324 10.0442 19.6221 9.47974C19.1227 9.13213 18.6598 8.77797 18.3203 8.51001C18.2189 8.42999 18.1299 8.35677 18.0537 8.29517C18.0259 7.8675 17.984 7.12252 17.9893 6.33716V6.33618C17.9953 5.35136 17.9928 4.48231 17.8242 3.79517C17.735 3.43161 17.5926 3.08129 17.3564 2.76978C17.1175 2.4547 16.8125 2.21812 16.4561 2.04028C16.0724 1.84879 15.6832 1.72933 15.2715 1.71606Z" fill="#92CF77" stroke="#7AAB64" stroke-width="1.71429"/>
</svg>
