<svg width="22" height="22" viewBox="0 0 22 22" fill="none" xmlns="http://www.w3.org/2000/svg">
<path d="M10.4982 0.433059C10.5824 -0.144406 11.4156 -0.144403 11.4999 0.433061L11.5364 0.683349C12.2748 5.74647 16.2515 9.72314 21.3146 10.4616L21.5649 10.4981C22.1423 10.5823 22.1423 11.4155 21.5649 11.4997L21.3146 11.5362C16.2515 12.2747 12.2748 16.2513 11.5364 21.3145L11.4999 21.5647C11.4156 22.1422 10.5824 22.1422 10.4982 21.5647L10.4617 21.3145C9.72326 16.2513 5.74659 12.2747 0.68347 11.5362L0.433181 11.4997C-0.144284 11.4155 -0.144281 10.5823 0.433183 10.4981L0.683473 10.4616C5.74659 9.72314 9.72326 5.74647 10.4617 0.683349L10.4982 0.433059Z" fill="#54BEFF"/>
<path d="M10.4982 0.433059C10.5824 -0.144406 11.4156 -0.144403 11.4999 0.433061L11.5364 0.683349C12.2748 5.74647 16.2515 9.72314 21.3146 10.4616L21.5649 10.4981C22.1423 10.5823 22.1423 11.4155 21.5649 11.4997L21.3146 11.5362C16.2515 12.2747 12.2748 16.2513 11.5364 21.3145L11.4999 21.5647C11.4156 22.1422 10.5824 22.1422 10.4982 21.5647L10.4617 21.3145C9.72326 16.2513 5.74659 12.2747 0.68347 11.5362L0.433181 11.4997C-0.144284 11.4155 -0.144281 10.5823 0.433183 10.4981L0.683473 10.4616C5.74659 9.72314 9.72326 5.74647 10.4617 0.683349L10.4982 0.433059Z" fill="url(#paint0_radial_258_652)"/>
<defs>
<radialGradient id="paint0_radial_258_652" cx="0" cy="0" r="1" gradientUnits="userSpaceOnUse" gradientTransform="translate(5.49902 4.9989) rotate(45) scale(21.2132)">
<stop offset="0.130605" stop-color="#7EF2FF"/>
<stop offset="0.54858" stop-color="#54BEFF"/>
<stop offset="1" stop-color="#28ADFF"/>
</radialGradient>
</defs>
</svg>
