<svg width="199" height="199" viewBox="0 0 199 199" fill="none" xmlns="http://www.w3.org/2000/svg">
<path d="M165.001 123.913C170.716 129.533 174.228 137.014 174.9 145V144.975C181.772 145.803 188.067 149.227 192.495 154.547C196.923 159.867 199.149 166.679 198.715 173.587C198.282 180.495 195.223 186.975 190.166 191.7C185.108 196.425 178.434 199.037 171.513 199H99.5C44.547 199 0 154.453 0 99.4998C0 44.5469 44.5511 0 99.5 0C154.449 0 199 44.5469 199 99.4998C199.019 114.084 195.819 128.476 189.648 141.654C187.328 140.404 183.975 139.247 181.311 138.747C180.482 131.008 174.6 121.711 167.491 116.083C161.492 111.334 154.589 109.147 150.87 108.09C152.315 99.2617 151.466 90.19 148.38 81.7545C144.922 72.3039 138.804 64.0557 130.763 58.0049C122.722 51.954 113.102 48.3591 103.063 47.6537C93.0247 46.9483 82.9965 49.1626 74.1884 54.0295C65.3803 58.8965 58.1686 66.208 53.4233 75.0822C48.678 83.9564 46.6018 94.0141 47.4452 104.042C48.2886 114.07 52.0156 123.639 58.1765 131.596C64.3373 139.553 72.669 145.558 82.1662 148.885C84.1975 145.831 86.9543 143.329 90.1899 141.602C93.4254 139.875 97.0388 138.977 100.706 138.989C103.473 139.003 106.212 139.536 108.782 140.56C110.517 132.735 114.998 125.791 121.413 120.986C127.828 116.182 135.752 113.835 143.749 114.372C151.746 114.909 159.285 118.294 165.001 123.913Z" fill="var(-------------A1D, white)"/>
<path d="M165.001 123.913C170.716 129.533 174.228 137.014 174.9 145V144.975C181.772 145.803 188.067 149.227 192.495 154.547C196.923 159.867 199.149 166.679 198.715 173.587C198.282 180.495 195.223 186.975 190.166 191.7C185.108 196.425 178.434 199.037 171.513 199H99.5C44.547 199 0 154.453 0 99.4998C0 44.5469 44.5511 0 99.5 0C154.449 0 199 44.5469 199 99.4998C199.019 114.084 195.819 128.476 189.648 141.654C187.328 140.404 183.975 139.247 181.311 138.747C180.482 131.008 174.6 121.711 167.491 116.083C161.492 111.334 154.589 109.147 150.87 108.09C152.315 99.2617 151.466 90.19 148.38 81.7545C144.922 72.3039 138.804 64.0557 130.763 58.0049C122.722 51.954 113.102 48.3591 103.063 47.6537C93.0247 46.9483 82.9965 49.1626 74.1884 54.0295C65.3803 58.8965 58.1686 66.208 53.4233 75.0822C48.678 83.9564 46.6018 94.0141 47.4452 104.042C48.2886 114.07 52.0156 123.639 58.1765 131.596C64.3373 139.553 72.669 145.558 82.1662 148.885C84.1975 145.831 86.9543 143.329 90.1899 141.602C93.4254 139.875 97.0388 138.977 100.706 138.989C103.473 139.003 106.212 139.536 108.782 140.56C110.517 132.735 114.998 125.791 121.413 120.986C127.828 116.182 135.752 113.835 143.749 114.372C151.746 114.909 159.285 118.294 165.001 123.913Z" fill="var(-------------A1D, white)"/>
</svg>
