<svg width="32" height="32" viewBox="0 0 32 32" fill="none" xmlns="http://www.w3.org/2000/svg">
<path fill-rule="evenodd" clip-rule="evenodd" d="M21.3335 3.92712C21.3335 3.46199 21.8958 3.22906 22.2247 3.55795L26.9135 8.24672C27.1174 8.45061 27.1174 8.78117 26.9135 8.98506L22.2247 13.6738C21.8958 14.0027 21.3335 13.7698 21.3335 13.3047V10.9871C18.6435 10.8444 15.4371 12.7265 13.3334 16.5712C13.8741 9.81231 19.3337 7.03903 21.3335 6.24156V3.92712ZM6.00033 4.66669C5.26395 4.66669 4.66699 5.26365 4.66699 6.00003V26.0001C4.66699 26.7365 5.26395 27.3334 6.00033 27.3334H26.0004C26.7368 27.3334 27.3337 26.7365 27.3337 26.0001V17.3334H24.667V24.6667H7.33367V7.33336H14.0004V4.66669H6.00033Z" fill="var(-----------A1, #242424)"/>
</svg>
