<svg width="22" height="22" viewBox="0 0 22 22" fill="none" xmlns="http://www.w3.org/2000/svg">
<path d="M10.4982 0.433181C10.5824 -0.144284 11.4156 -0.144281 11.4999 0.433183L11.5364 0.683471C12.2748 5.74659 16.2515 9.72326 21.3146 10.4617L21.5649 10.4982C22.1423 10.5824 22.1423 11.4156 21.5649 11.4999L21.3146 11.5364C16.2515 12.2748 12.2748 16.2515 11.5364 21.3146L11.4999 21.5649C11.4156 22.1423 10.5824 22.1423 10.4982 21.5649L10.4617 21.3146C9.72326 16.2515 5.74659 12.2748 0.68347 11.5364L0.433181 11.4999C-0.144284 11.4156 -0.144281 10.5824 0.433183 10.4982L0.683473 10.4617C5.74659 9.72326 9.72326 5.74659 10.4617 0.683471L10.4982 0.433181Z" fill="#54BEFF"/>
<path d="M10.4982 0.433181C10.5824 -0.144284 11.4156 -0.144281 11.4999 0.433183L11.5364 0.683471C12.2748 5.74659 16.2515 9.72326 21.3146 10.4617L21.5649 10.4982C22.1423 10.5824 22.1423 11.4156 21.5649 11.4999L21.3146 11.5364C16.2515 12.2748 12.2748 16.2515 11.5364 21.3146L11.4999 21.5649C11.4156 22.1423 10.5824 22.1423 10.4982 21.5649L10.4617 21.3146C9.72326 16.2515 5.74659 12.2748 0.68347 11.5364L0.433181 11.4999C-0.144284 11.4156 -0.144281 10.5824 0.433183 10.4982L0.683473 10.4617C5.74659 9.72326 9.72326 5.74659 10.4617 0.683471L10.4982 0.433181Z" fill="url(#paint0_radial_222_317)"/>
<defs>
<radialGradient id="paint0_radial_222_317" cx="0" cy="0" r="1" gradientUnits="userSpaceOnUse" gradientTransform="translate(5.49902 4.99902) rotate(45) scale(21.2132)">
<stop offset="0.130605" stop-color="#7EF2FF"/>
<stop offset="0.54858" stop-color="#54BEFF"/>
<stop offset="1" stop-color="#28ADFF"/>
</radialGradient>
</defs>
</svg>
