<svg width="40" height="19" viewBox="0 0 40 19" fill="none" xmlns="http://www.w3.org/2000/svg">
<path d="M6.28946 1.41629C6.22117 1.19734 6.1324 0.964717 6.02313 0.718406C5.92753 0.472096 5.81144 0.232627 5.67486 0H8.27669C8.39961 0.205259 8.5157 0.437886 8.62496 0.697881C8.74788 0.957875 8.84349 1.19734 8.91178 1.41629H11.2268V3.38677C11.4726 2.81205 11.698 2.22364 11.9029 1.62155C12.1214 1.00577 12.2921 0.465254 12.415 0H14.7096C14.6686 0.177891 14.6208 0.34894 14.5661 0.513148C14.5252 0.677355 14.4774 0.848404 14.4227 1.02629H18.643V3.24309H13.6238C13.5281 3.47572 13.4325 3.69466 13.3369 3.89992C13.2413 4.09149 13.1526 4.28307 13.0706 4.47464H10.7351C10.8034 4.3378 10.8649 4.20096 10.9195 4.06413C10.9878 3.9136 11.0561 3.76308 11.1244 3.61256H7.60062C7.60062 4.00939 7.59379 4.40622 7.58013 4.80306C7.58013 5.19989 7.58013 5.58304 7.58013 5.95251H10.94V13.5266C10.9263 13.9644 10.899 14.4229 10.858 14.9018C10.8307 15.3807 10.7829 15.8528 10.7146 16.3181C10.66 16.7696 10.5849 17.2007 10.4893 17.6112C10.4073 18.0354 10.3185 18.3912 10.2229 18.6786H7.74403C8.08547 17.9944 8.33132 17.1938 8.48155 16.277C8.64545 15.3465 8.74105 14.4092 8.76837 13.465V8.12825H7.51867C7.43673 10.4135 7.28649 12.425 7.06796 14.1629C6.86309 15.887 6.58311 17.3923 6.228 18.6786H3.93347C4.19297 17.7207 4.4115 16.7286 4.58905 15.7023C4.78026 14.6623 4.9305 13.5402 5.03976 12.3361C5.14903 11.1182 5.22415 9.79769 5.26512 8.37456C5.31975 6.95143 5.3539 5.3641 5.36755 3.61256H4.07688V1.41629H6.28946ZM13.7876 10.0372V9.38033C14.3203 8.66877 14.7505 7.92983 15.0783 7.16353H11.5136V4.88516H18.4996C18.2674 5.76093 17.9533 6.59565 17.5572 7.38932C17.1611 8.18299 16.7582 8.88087 16.3485 9.48296V10.0372H18.6635V12.3566H16.3485V15.6407C16.3348 16.366 16.2734 16.9612 16.1641 17.4265C16.0549 17.8917 15.9046 18.3091 15.7134 18.6786H12.6814C13.0091 18.2817 13.2755 17.8233 13.4803 17.3033C13.6852 16.7833 13.7876 16.2018 13.7876 15.5586V12.3566H11.4521V10.0372H13.7876ZM0.0204869 18.6786C0.19804 18.0628 0.361934 17.3923 0.512171 16.667C0.676066 15.9418 0.826303 15.2097 0.962882 14.4707C1.11312 13.7181 1.24287 12.986 1.35213 12.2745C1.4614 11.5629 1.55017 10.9198 1.61846 10.345H4.11786C4.04957 10.9471 3.96079 11.6177 3.85153 12.3566C3.75592 13.0818 3.64666 13.8208 3.52374 14.5734C3.40082 15.326 3.26424 16.0581 3.114 16.7696C2.97742 17.4812 2.84084 18.1175 2.70426 18.6786H0.0204869ZM1.65943 4.45412C1.42725 3.75624 1.16775 3.03099 0.880934 2.27837C0.607776 1.51207 0.334618 0.821036 0.0614605 0.20526H2.51988C2.79304 0.779985 3.07303 1.43681 3.35984 2.17574C3.66032 2.91468 3.95396 3.67413 4.24078 4.45412H1.65943ZM1.65943 9.3598C1.41359 8.64824 1.14043 7.92299 0.839961 7.18406C0.553145 6.43144 0.273158 5.74725 0 5.13147H2.43793C2.71109 5.7062 3.01157 6.37671 3.33936 7.14301C3.66715 7.90931 3.96762 8.64824 4.24078 9.3598H1.65943Z" fill="white"/>
<path d="M29.2347 18.6786C29.9723 17.748 30.6415 16.8723 31.2424 16.0512C31.857 15.2302 32.4238 14.4297 32.9428 13.6497C32.5468 12.6508 32.2053 11.5903 31.9185 10.4682C31.6317 9.34612 31.3927 8.11457 31.2015 6.77354L28.866 6.93775V4.61832L30.9556 4.47464C30.8873 3.79045 30.8327 3.08573 30.7917 2.36048C30.7644 1.62155 30.7439 0.841562 30.7303 0.0205268H33.2706C33.2843 0.80051 33.3048 1.54628 33.3321 2.25785C33.3731 2.95573 33.4277 3.63992 33.496 4.31044L39.0889 3.89992V6.21934L33.7623 6.60934C33.9808 8.0872 34.2881 9.47612 34.6842 10.7761C35.3125 9.64032 35.8793 8.50456 36.3846 7.36879H38.966C38.4743 8.53193 37.969 9.64032 37.45 10.694C36.931 11.734 36.3846 12.7466 35.811 13.7318C36.2071 14.5939 36.651 15.4286 37.1427 16.236C37.6343 17.0433 38.1806 17.8575 38.7816 18.6786H35.6676C35.3944 18.2817 35.1349 17.8849 34.8891 17.4881C34.6569 17.1049 34.4247 16.7081 34.1925 16.2976C33.9194 16.6944 33.6462 17.0912 33.3731 17.4881C33.0999 17.8849 32.8131 18.2817 32.5126 18.6786H29.2347ZM26.428 18.6786C26.2095 18.0901 25.9841 17.4949 25.752 16.8928C25.5198 16.2907 25.2808 15.6681 25.0349 15.0249C24.7618 15.6407 24.4681 16.2428 24.154 16.8312C23.8535 17.4333 23.5326 18.0491 23.1911 18.6786H20.4459C21.7707 16.2702 22.8838 13.9781 23.7852 11.8024C23.2662 10.5161 22.7336 9.24349 22.1873 7.98457C21.6546 6.71197 21.1219 5.48041 20.5893 4.28991H23.0272C23.6555 5.63093 24.3042 7.07459 24.9735 8.62087C25.2739 7.71773 25.5334 6.83512 25.752 5.97303C25.9705 5.11095 26.1549 4.26254 26.3051 3.42782H20.5483V1.29313H29.1118C28.784 3.34572 28.3948 5.2341 27.9441 6.95827C27.4933 8.68245 26.9675 10.3314 26.3666 11.905C26.8173 13.0134 27.268 14.1355 27.7187 15.2713C28.1831 16.407 28.6338 17.5428 29.0708 18.6786H26.428ZM35.4627 3.32519C35.2579 2.2989 34.9915 1.23155 34.6637 0.123156H37.1427C37.3065 0.643145 37.45 1.15629 37.5729 1.6626C37.6958 2.1689 37.8255 2.7231 37.9621 3.32519H35.4627Z" fill="white"/>
</svg>
