<svg width="22" height="22" viewBox="0 0 22 22" fill="none" xmlns="http://www.w3.org/2000/svg">
<path d="M10.4981 0.43312C10.5823 -0.144345 11.4155 -0.144342 11.4997 0.433122L11.5362 0.68341C12.2747 5.74653 16.2513 9.7232 21.3145 10.4616L21.5647 10.4981C22.1422 10.5823 22.1422 11.4156 21.5647 11.4998L21.3145 11.5363C16.2513 12.2747 12.2747 16.2514 11.5362 21.3145L11.4997 21.5648C11.4155 22.1423 10.5823 22.1423 10.4981 21.5648L10.4616 21.3145C9.72314 16.2514 5.74647 12.2747 0.683347 11.5363L0.433059 11.4998C-0.144406 11.4156 -0.144403 10.5823 0.433061 10.4981L0.683351 10.4616C5.74647 9.7232 9.72314 5.74653 10.4616 0.68341L10.4981 0.43312Z" fill="url(#paint0_radial_334_1439)"/>
<defs>
<radialGradient id="paint0_radial_334_1439" cx="0" cy="0" r="1" gradientUnits="userSpaceOnUse" gradientTransform="translate(5.4989 4.99896) rotate(45) scale(21.2132)">
<stop offset="0.130605" stop-color="#7EF2FF"/>
<stop offset="0.54858" stop-color="#54BEFF"/>
<stop offset="1" stop-color="#28ADFF"/>
</radialGradient>
</defs>
</svg>
